<mxfile host="Electron" agent="Mozilla/5.0 (Windows NT 10.0; Win64; x64) AppleWebKit/537.36 (KHTML, like Gecko) draw.io/26.2.2 Chrome/134.0.6998.178 Electron/35.1.2 Safari/537.36" version="26.2.2" pages="5">
  <diagram name="shards" id="-H_mtQnk-PTXWXPvYvuk">
    <mxGraphModel dx="1556" dy="922" grid="1" gridSize="10" guides="1" tooltips="1" connect="1" arrows="1" fold="1" page="1" pageScale="1" pageWidth="1169" pageHeight="827" math="0" shadow="0">
      <root>
        <mxCell id="0" />
        <mxCell id="1" parent="0" />
        <mxCell id="PdJsGDBgcXhgXmVUZjuK-1" value="data" style="rounded=0;whiteSpace=wrap;html=1;" vertex="1" parent="1">
          <mxGeometry x="740" y="210" width="270" height="260" as="geometry" />
        </mxCell>
        <mxCell id="PdJsGDBgcXhgXmVUZjuK-2" value="pymongo-api" style="rounded=1;whiteSpace=wrap;html=1;" vertex="1" parent="1">
          <mxGeometry x="360" y="290" width="120" height="60" as="geometry" />
        </mxCell>
        <mxCell id="PdJsGDBgcXhgXmVUZjuK-3" style="edgeStyle=orthogonalEdgeStyle;rounded=0;orthogonalLoop=1;jettySize=auto;html=1;exitX=1;exitY=0.5;exitDx=0;exitDy=0;entryX=0;entryY=0.5;entryDx=0;entryDy=0;entryPerimeter=0;" edge="1" parent="1" source="PdJsGDBgcXhgXmVUZjuK-2" target="PdJsGDBgcXhgXmVUZjuK-4">
          <mxGeometry relative="1" as="geometry">
            <mxPoint x="560" y="320" as="targetPoint" />
          </mxGeometry>
        </mxCell>
        <mxCell id="PdJsGDBgcXhgXmVUZjuK-4" value="MongoDB&lt;br&gt;Router" style="shape=cylinder3;whiteSpace=wrap;html=1;boundedLbl=1;backgroundOutline=1;size=15;" vertex="1" parent="1">
          <mxGeometry x="570" y="280" width="60" height="80" as="geometry" />
        </mxCell>
        <mxCell id="PdJsGDBgcXhgXmVUZjuK-5" value="MongoDB&lt;br&gt;Shard1" style="shape=cylinder3;whiteSpace=wrap;html=1;boundedLbl=1;backgroundOutline=1;size=15;" vertex="1" parent="1">
          <mxGeometry x="900" y="220" width="60" height="80" as="geometry" />
        </mxCell>
        <mxCell id="PdJsGDBgcXhgXmVUZjuK-6" value="MongoDB&lt;br&gt;Shard2" style="shape=cylinder3;whiteSpace=wrap;html=1;boundedLbl=1;backgroundOutline=1;size=15;" vertex="1" parent="1">
          <mxGeometry x="900" y="374" width="60" height="80" as="geometry" />
        </mxCell>
        <mxCell id="PdJsGDBgcXhgXmVUZjuK-7" value="MongoDB&lt;br&gt;Config" style="shape=cylinder3;whiteSpace=wrap;html=1;boundedLbl=1;backgroundOutline=1;size=15;" vertex="1" parent="1">
          <mxGeometry x="570" y="100" width="60" height="80" as="geometry" />
        </mxCell>
        <mxCell id="PdJsGDBgcXhgXmVUZjuK-8" style="edgeStyle=orthogonalEdgeStyle;rounded=0;orthogonalLoop=1;jettySize=auto;html=1;exitX=0.5;exitY=1;exitDx=0;exitDy=0;exitPerimeter=0;entryX=0.5;entryY=0;entryDx=0;entryDy=0;entryPerimeter=0;" edge="1" parent="1" source="PdJsGDBgcXhgXmVUZjuK-7" target="PdJsGDBgcXhgXmVUZjuK-4">
          <mxGeometry relative="1" as="geometry" />
        </mxCell>
        <mxCell id="PdJsGDBgcXhgXmVUZjuK-9" value="Shards info" style="edgeLabel;html=1;align=center;verticalAlign=middle;resizable=0;points=[];" vertex="1" connectable="0" parent="PdJsGDBgcXhgXmVUZjuK-8">
          <mxGeometry x="-0.12" y="-1" relative="1" as="geometry">
            <mxPoint as="offset" />
          </mxGeometry>
        </mxCell>
        <mxCell id="PdJsGDBgcXhgXmVUZjuK-10" style="edgeStyle=orthogonalEdgeStyle;rounded=0;orthogonalLoop=1;jettySize=auto;html=1;exitX=1;exitY=0;exitDx=0;exitDy=27.5;exitPerimeter=0;entryX=0;entryY=0.5;entryDx=0;entryDy=0;entryPerimeter=0;" edge="1" parent="1" source="PdJsGDBgcXhgXmVUZjuK-4" target="PdJsGDBgcXhgXmVUZjuK-5">
          <mxGeometry relative="1" as="geometry" />
        </mxCell>
        <mxCell id="PdJsGDBgcXhgXmVUZjuK-11" style="edgeStyle=orthogonalEdgeStyle;rounded=0;orthogonalLoop=1;jettySize=auto;html=1;exitX=1;exitY=0;exitDx=0;exitDy=52.5;exitPerimeter=0;entryX=-0.007;entryY=0.569;entryDx=0;entryDy=0;entryPerimeter=0;" edge="1" parent="1" source="PdJsGDBgcXhgXmVUZjuK-4" target="PdJsGDBgcXhgXmVUZjuK-6">
          <mxGeometry relative="1" as="geometry" />
        </mxCell>
        <mxCell id="PdJsGDBgcXhgXmVUZjuK-12" style="edgeStyle=orthogonalEdgeStyle;rounded=0;orthogonalLoop=1;jettySize=auto;html=1;exitX=0.5;exitY=0;exitDx=0;exitDy=0;entryX=1;entryY=0.5;entryDx=0;entryDy=0;entryPerimeter=0;" edge="1" parent="1" source="PdJsGDBgcXhgXmVUZjuK-1" target="PdJsGDBgcXhgXmVUZjuK-7">
          <mxGeometry relative="1" as="geometry" />
        </mxCell>
      </root>
    </mxGraphModel>
  </diagram>
  <diagram name="shards-repl" id="qeF7YFFsVlt1C12aMF8a">
    <mxGraphModel dx="1556" dy="922" grid="1" gridSize="10" guides="1" tooltips="1" connect="1" arrows="1" fold="1" page="1" pageScale="1" pageWidth="1169" pageHeight="827" math="0" shadow="0">
      <root>
        <mxCell id="6vqDNNXld811BAtUUffi-0" />
        <mxCell id="6vqDNNXld811BAtUUffi-1" parent="6vqDNNXld811BAtUUffi-0" />
        <mxCell id="q-wtnh5gK94UqfY4lUgK-1" value="data" style="rounded=0;whiteSpace=wrap;html=1;" vertex="1" parent="6vqDNNXld811BAtUUffi-1">
          <mxGeometry x="600" y="200" width="360" height="510" as="geometry" />
        </mxCell>
        <mxCell id="6vqDNNXld811BAtUUffi-2" value="pymongo-api" style="rounded=1;whiteSpace=wrap;html=1;" vertex="1" parent="6vqDNNXld811BAtUUffi-1">
          <mxGeometry x="170" y="450" width="120" height="60" as="geometry" />
        </mxCell>
        <mxCell id="6vqDNNXld811BAtUUffi-3" style="edgeStyle=orthogonalEdgeStyle;rounded=0;orthogonalLoop=1;jettySize=auto;html=1;exitX=1;exitY=0.5;exitDx=0;exitDy=0;entryX=0;entryY=0.5;entryDx=0;entryDy=0;entryPerimeter=0;" edge="1" parent="6vqDNNXld811BAtUUffi-1" source="6vqDNNXld811BAtUUffi-2" target="6vqDNNXld811BAtUUffi-4">
          <mxGeometry relative="1" as="geometry">
            <mxPoint x="380" y="320" as="targetPoint" />
          </mxGeometry>
        </mxCell>
        <mxCell id="6vqDNNXld811BAtUUffi-4" value="MongoDB&lt;br&gt;Router" style="shape=cylinder3;whiteSpace=wrap;html=1;boundedLbl=1;backgroundOutline=1;size=15;" vertex="1" parent="6vqDNNXld811BAtUUffi-1">
          <mxGeometry x="390" y="440" width="60" height="80" as="geometry" />
        </mxCell>
        <mxCell id="6vqDNNXld811BAtUUffi-7" value="MongoDB&lt;br&gt;Config" style="shape=cylinder3;whiteSpace=wrap;html=1;boundedLbl=1;backgroundOutline=1;size=15;" vertex="1" parent="6vqDNNXld811BAtUUffi-1">
          <mxGeometry x="390" y="100" width="60" height="80" as="geometry" />
        </mxCell>
        <mxCell id="6vqDNNXld811BAtUUffi-8" style="edgeStyle=orthogonalEdgeStyle;rounded=0;orthogonalLoop=1;jettySize=auto;html=1;exitX=0.5;exitY=1;exitDx=0;exitDy=0;exitPerimeter=0;entryX=0.5;entryY=0;entryDx=0;entryDy=0;entryPerimeter=0;" edge="1" parent="6vqDNNXld811BAtUUffi-1" source="6vqDNNXld811BAtUUffi-7" target="6vqDNNXld811BAtUUffi-4">
          <mxGeometry relative="1" as="geometry" />
        </mxCell>
        <mxCell id="q-wtnh5gK94UqfY4lUgK-0" value="Shards info" style="edgeLabel;html=1;align=center;verticalAlign=middle;resizable=0;points=[];" vertex="1" connectable="0" parent="6vqDNNXld811BAtUUffi-8">
          <mxGeometry x="-0.12" y="-1" relative="1" as="geometry">
            <mxPoint as="offset" />
          </mxGeometry>
        </mxCell>
        <mxCell id="6vqDNNXld811BAtUUffi-9" style="edgeStyle=orthogonalEdgeStyle;rounded=0;orthogonalLoop=1;jettySize=auto;html=1;exitX=1;exitY=0;exitDx=0;exitDy=27.5;exitPerimeter=0;entryX=0;entryY=0.5;entryDx=0;entryDy=0;" edge="1" parent="6vqDNNXld811BAtUUffi-1" source="6vqDNNXld811BAtUUffi-4" target="Bka9d0ipxKqQHmRLhknL-3">
          <mxGeometry relative="1" as="geometry">
            <mxPoint x="609.9999999999998" y="260" as="targetPoint" />
          </mxGeometry>
        </mxCell>
        <mxCell id="6vqDNNXld811BAtUUffi-10" style="edgeStyle=orthogonalEdgeStyle;rounded=0;orthogonalLoop=1;jettySize=auto;html=1;exitX=1;exitY=0;exitDx=0;exitDy=52.5;exitPerimeter=0;" edge="1" parent="6vqDNNXld811BAtUUffi-1" source="6vqDNNXld811BAtUUffi-4" target="Bka9d0ipxKqQHmRLhknL-11">
          <mxGeometry relative="1" as="geometry">
            <mxPoint x="609.5799999999997" y="419.52" as="targetPoint" />
          </mxGeometry>
        </mxCell>
        <mxCell id="q-wtnh5gK94UqfY4lUgK-4" style="edgeStyle=orthogonalEdgeStyle;rounded=0;orthogonalLoop=1;jettySize=auto;html=1;exitX=0.5;exitY=0;exitDx=0;exitDy=0;entryX=1;entryY=0.5;entryDx=0;entryDy=0;entryPerimeter=0;" edge="1" parent="6vqDNNXld811BAtUUffi-1" source="q-wtnh5gK94UqfY4lUgK-1" target="6vqDNNXld811BAtUUffi-7">
          <mxGeometry relative="1" as="geometry" />
        </mxCell>
        <mxCell id="Bka9d0ipxKqQHmRLhknL-9" value="" style="group" vertex="1" connectable="0" parent="6vqDNNXld811BAtUUffi-1">
          <mxGeometry x="650" y="210" width="240" height="220" as="geometry" />
        </mxCell>
        <mxCell id="Bka9d0ipxKqQHmRLhknL-3" value="shard1" style="rounded=0;whiteSpace=wrap;html=1;" vertex="1" parent="Bka9d0ipxKqQHmRLhknL-9">
          <mxGeometry width="240" height="220" as="geometry" />
        </mxCell>
        <mxCell id="Bka9d0ipxKqQHmRLhknL-8" value="" style="group" vertex="1" connectable="0" parent="Bka9d0ipxKqQHmRLhknL-9">
          <mxGeometry x="10" y="30" width="220" height="180" as="geometry" />
        </mxCell>
        <mxCell id="Bka9d0ipxKqQHmRLhknL-7" style="edgeStyle=orthogonalEdgeStyle;rounded=0;orthogonalLoop=1;jettySize=auto;html=1;exitX=1;exitY=0.5;exitDx=0;exitDy=0;exitPerimeter=0;startArrow=openThin;startFill=0;" edge="1" parent="Bka9d0ipxKqQHmRLhknL-8" source="Bka9d0ipxKqQHmRLhknL-0" target="Bka9d0ipxKqQHmRLhknL-1">
          <mxGeometry relative="1" as="geometry" />
        </mxCell>
        <mxCell id="Bka9d0ipxKqQHmRLhknL-0" value="MongoDB&lt;br&gt;&lt;div&gt;repl0&lt;/div&gt;" style="shape=cylinder3;whiteSpace=wrap;html=1;boundedLbl=1;backgroundOutline=1;size=15;" vertex="1" parent="Bka9d0ipxKqQHmRLhknL-8">
          <mxGeometry y="100" width="60" height="80" as="geometry" />
        </mxCell>
        <mxCell id="Bka9d0ipxKqQHmRLhknL-1" value="MongoDB&lt;br&gt;&lt;div&gt;repl2&lt;/div&gt;" style="shape=cylinder3;whiteSpace=wrap;html=1;boundedLbl=1;backgroundOutline=1;size=15;" vertex="1" parent="Bka9d0ipxKqQHmRLhknL-8">
          <mxGeometry x="160" y="100" width="60" height="80" as="geometry" />
        </mxCell>
        <mxCell id="Bka9d0ipxKqQHmRLhknL-2" value="MongoDB&lt;br&gt;&lt;div&gt;repl1&lt;/div&gt;" style="shape=cylinder3;whiteSpace=wrap;html=1;boundedLbl=1;backgroundOutline=1;size=15;" vertex="1" parent="Bka9d0ipxKqQHmRLhknL-8">
          <mxGeometry x="80" y="-20" width="60" height="80" as="geometry" />
        </mxCell>
        <mxCell id="Bka9d0ipxKqQHmRLhknL-4" style="edgeStyle=orthogonalEdgeStyle;rounded=0;orthogonalLoop=1;jettySize=auto;html=1;exitX=0;exitY=0.5;exitDx=0;exitDy=0;exitPerimeter=0;entryX=0.5;entryY=0;entryDx=0;entryDy=0;entryPerimeter=0;startArrow=openThin;startFill=0;" edge="1" parent="Bka9d0ipxKqQHmRLhknL-8" source="Bka9d0ipxKqQHmRLhknL-2" target="Bka9d0ipxKqQHmRLhknL-0">
          <mxGeometry relative="1" as="geometry" />
        </mxCell>
        <mxCell id="Bka9d0ipxKqQHmRLhknL-5" style="edgeStyle=orthogonalEdgeStyle;rounded=0;orthogonalLoop=1;jettySize=auto;html=1;exitX=1;exitY=0.5;exitDx=0;exitDy=0;exitPerimeter=0;entryX=0.5;entryY=0;entryDx=0;entryDy=0;entryPerimeter=0;startArrow=classic;startFill=1;" edge="1" parent="Bka9d0ipxKqQHmRLhknL-8" source="Bka9d0ipxKqQHmRLhknL-2" target="Bka9d0ipxKqQHmRLhknL-1">
          <mxGeometry relative="1" as="geometry" />
        </mxCell>
        <mxCell id="Bka9d0ipxKqQHmRLhknL-10" value="" style="group" vertex="1" connectable="0" parent="6vqDNNXld811BAtUUffi-1">
          <mxGeometry x="650" y="480" width="240" height="220" as="geometry" />
        </mxCell>
        <mxCell id="Bka9d0ipxKqQHmRLhknL-11" value="shard2" style="rounded=0;whiteSpace=wrap;html=1;" vertex="1" parent="Bka9d0ipxKqQHmRLhknL-10">
          <mxGeometry width="240" height="220" as="geometry" />
        </mxCell>
        <mxCell id="Bka9d0ipxKqQHmRLhknL-12" value="" style="group" vertex="1" connectable="0" parent="Bka9d0ipxKqQHmRLhknL-10">
          <mxGeometry x="10" y="30" width="220" height="180" as="geometry" />
        </mxCell>
        <mxCell id="Bka9d0ipxKqQHmRLhknL-13" style="edgeStyle=orthogonalEdgeStyle;rounded=0;orthogonalLoop=1;jettySize=auto;html=1;exitX=1;exitY=0.5;exitDx=0;exitDy=0;exitPerimeter=0;startArrow=openThin;startFill=0;" edge="1" parent="Bka9d0ipxKqQHmRLhknL-12" source="Bka9d0ipxKqQHmRLhknL-14" target="Bka9d0ipxKqQHmRLhknL-15">
          <mxGeometry relative="1" as="geometry" />
        </mxCell>
        <mxCell id="Bka9d0ipxKqQHmRLhknL-14" value="MongoDB&lt;br&gt;&lt;div&gt;repl0&lt;/div&gt;" style="shape=cylinder3;whiteSpace=wrap;html=1;boundedLbl=1;backgroundOutline=1;size=15;" vertex="1" parent="Bka9d0ipxKqQHmRLhknL-12">
          <mxGeometry y="100" width="60" height="80" as="geometry" />
        </mxCell>
        <mxCell id="Bka9d0ipxKqQHmRLhknL-15" value="MongoDB&lt;br&gt;&lt;div&gt;repl2&lt;/div&gt;" style="shape=cylinder3;whiteSpace=wrap;html=1;boundedLbl=1;backgroundOutline=1;size=15;" vertex="1" parent="Bka9d0ipxKqQHmRLhknL-12">
          <mxGeometry x="160" y="100" width="60" height="80" as="geometry" />
        </mxCell>
        <mxCell id="Bka9d0ipxKqQHmRLhknL-16" value="MongoDB&lt;br&gt;&lt;div&gt;repl1&lt;/div&gt;" style="shape=cylinder3;whiteSpace=wrap;html=1;boundedLbl=1;backgroundOutline=1;size=15;" vertex="1" parent="Bka9d0ipxKqQHmRLhknL-12">
          <mxGeometry x="80" y="-20" width="60" height="80" as="geometry" />
        </mxCell>
        <mxCell id="Bka9d0ipxKqQHmRLhknL-17" style="edgeStyle=orthogonalEdgeStyle;rounded=0;orthogonalLoop=1;jettySize=auto;html=1;exitX=0;exitY=0.5;exitDx=0;exitDy=0;exitPerimeter=0;entryX=0.5;entryY=0;entryDx=0;entryDy=0;entryPerimeter=0;startArrow=openThin;startFill=0;" edge="1" parent="Bka9d0ipxKqQHmRLhknL-12" source="Bka9d0ipxKqQHmRLhknL-16" target="Bka9d0ipxKqQHmRLhknL-14">
          <mxGeometry relative="1" as="geometry" />
        </mxCell>
        <mxCell id="Bka9d0ipxKqQHmRLhknL-18" style="edgeStyle=orthogonalEdgeStyle;rounded=0;orthogonalLoop=1;jettySize=auto;html=1;exitX=1;exitY=0.5;exitDx=0;exitDy=0;exitPerimeter=0;entryX=0.5;entryY=0;entryDx=0;entryDy=0;entryPerimeter=0;startArrow=classic;startFill=1;" edge="1" parent="Bka9d0ipxKqQHmRLhknL-12" source="Bka9d0ipxKqQHmRLhknL-16" target="Bka9d0ipxKqQHmRLhknL-15">
          <mxGeometry relative="1" as="geometry" />
        </mxCell>
      </root>
    </mxGraphModel>
  </diagram>
  <diagram name="shards-repl-cache" id="4g1u8_UeGxFfNDQCQS-p">
    <mxGraphModel dx="1556" dy="922" grid="1" gridSize="10" guides="1" tooltips="1" connect="1" arrows="1" fold="1" page="1" pageScale="1" pageWidth="1169" pageHeight="827" math="0" shadow="0">
      <root>
        <mxCell id="fxDg-fmvhUHf-UqMxetp-0" />
        <mxCell id="fxDg-fmvhUHf-UqMxetp-1" parent="fxDg-fmvhUHf-UqMxetp-0" />
        <mxCell id="fxDg-fmvhUHf-UqMxetp-2" value="data" style="rounded=0;whiteSpace=wrap;html=1;" vertex="1" parent="fxDg-fmvhUHf-UqMxetp-1">
          <mxGeometry x="600" y="200" width="360" height="510" as="geometry" />
        </mxCell>
        <mxCell id="fxDg-fmvhUHf-UqMxetp-3" value="pymongo-api" style="rounded=1;whiteSpace=wrap;html=1;" vertex="1" parent="fxDg-fmvhUHf-UqMxetp-1">
          <mxGeometry x="170" y="450" width="120" height="60" as="geometry" />
        </mxCell>
        <mxCell id="fxDg-fmvhUHf-UqMxetp-4" style="edgeStyle=orthogonalEdgeStyle;rounded=0;orthogonalLoop=1;jettySize=auto;html=1;exitX=1;exitY=0.5;exitDx=0;exitDy=0;entryX=0;entryY=0.5;entryDx=0;entryDy=0;entryPerimeter=0;" edge="1" parent="fxDg-fmvhUHf-UqMxetp-1" source="fxDg-fmvhUHf-UqMxetp-3" target="fxDg-fmvhUHf-UqMxetp-5">
          <mxGeometry relative="1" as="geometry">
            <mxPoint x="380" y="320" as="targetPoint" />
          </mxGeometry>
        </mxCell>
        <mxCell id="fxDg-fmvhUHf-UqMxetp-5" value="MongoDB&lt;br&gt;Router" style="shape=cylinder3;whiteSpace=wrap;html=1;boundedLbl=1;backgroundOutline=1;size=15;" vertex="1" parent="fxDg-fmvhUHf-UqMxetp-1">
          <mxGeometry x="390" y="440" width="60" height="80" as="geometry" />
        </mxCell>
        <mxCell id="fxDg-fmvhUHf-UqMxetp-6" value="MongoDB&lt;br&gt;Config" style="shape=cylinder3;whiteSpace=wrap;html=1;boundedLbl=1;backgroundOutline=1;size=15;" vertex="1" parent="fxDg-fmvhUHf-UqMxetp-1">
          <mxGeometry x="390" y="100" width="60" height="80" as="geometry" />
        </mxCell>
        <mxCell id="fxDg-fmvhUHf-UqMxetp-7" style="edgeStyle=orthogonalEdgeStyle;rounded=0;orthogonalLoop=1;jettySize=auto;html=1;exitX=0.5;exitY=1;exitDx=0;exitDy=0;exitPerimeter=0;entryX=0.5;entryY=0;entryDx=0;entryDy=0;entryPerimeter=0;" edge="1" parent="fxDg-fmvhUHf-UqMxetp-1" source="fxDg-fmvhUHf-UqMxetp-6" target="fxDg-fmvhUHf-UqMxetp-5">
          <mxGeometry relative="1" as="geometry" />
        </mxCell>
        <mxCell id="fxDg-fmvhUHf-UqMxetp-8" value="Shards info" style="edgeLabel;html=1;align=center;verticalAlign=middle;resizable=0;points=[];" vertex="1" connectable="0" parent="fxDg-fmvhUHf-UqMxetp-7">
          <mxGeometry x="-0.12" y="-1" relative="1" as="geometry">
            <mxPoint as="offset" />
          </mxGeometry>
        </mxCell>
        <mxCell id="fxDg-fmvhUHf-UqMxetp-9" style="edgeStyle=orthogonalEdgeStyle;rounded=0;orthogonalLoop=1;jettySize=auto;html=1;exitX=1;exitY=0;exitDx=0;exitDy=27.5;exitPerimeter=0;entryX=0;entryY=0.5;entryDx=0;entryDy=0;" edge="1" parent="fxDg-fmvhUHf-UqMxetp-1" source="fxDg-fmvhUHf-UqMxetp-5" target="fxDg-fmvhUHf-UqMxetp-13">
          <mxGeometry relative="1" as="geometry">
            <mxPoint x="609.9999999999998" y="260" as="targetPoint" />
          </mxGeometry>
        </mxCell>
        <mxCell id="fxDg-fmvhUHf-UqMxetp-10" style="edgeStyle=orthogonalEdgeStyle;rounded=0;orthogonalLoop=1;jettySize=auto;html=1;exitX=1;exitY=0;exitDx=0;exitDy=52.5;exitPerimeter=0;" edge="1" parent="fxDg-fmvhUHf-UqMxetp-1" source="fxDg-fmvhUHf-UqMxetp-5" target="fxDg-fmvhUHf-UqMxetp-22">
          <mxGeometry relative="1" as="geometry">
            <mxPoint x="609.5799999999997" y="419.52" as="targetPoint" />
          </mxGeometry>
        </mxCell>
        <mxCell id="fxDg-fmvhUHf-UqMxetp-11" style="edgeStyle=orthogonalEdgeStyle;rounded=0;orthogonalLoop=1;jettySize=auto;html=1;exitX=0.5;exitY=0;exitDx=0;exitDy=0;entryX=1;entryY=0.5;entryDx=0;entryDy=0;entryPerimeter=0;" edge="1" parent="fxDg-fmvhUHf-UqMxetp-1" source="fxDg-fmvhUHf-UqMxetp-2" target="fxDg-fmvhUHf-UqMxetp-6">
          <mxGeometry relative="1" as="geometry" />
        </mxCell>
        <mxCell id="fxDg-fmvhUHf-UqMxetp-12" value="" style="group" vertex="1" connectable="0" parent="fxDg-fmvhUHf-UqMxetp-1">
          <mxGeometry x="650" y="210" width="240" height="220" as="geometry" />
        </mxCell>
        <mxCell id="fxDg-fmvhUHf-UqMxetp-13" value="shard1" style="rounded=0;whiteSpace=wrap;html=1;" vertex="1" parent="fxDg-fmvhUHf-UqMxetp-12">
          <mxGeometry width="240" height="220" as="geometry" />
        </mxCell>
        <mxCell id="fxDg-fmvhUHf-UqMxetp-14" value="" style="group" vertex="1" connectable="0" parent="fxDg-fmvhUHf-UqMxetp-12">
          <mxGeometry x="10" y="30" width="220" height="180" as="geometry" />
        </mxCell>
        <mxCell id="fxDg-fmvhUHf-UqMxetp-15" style="edgeStyle=orthogonalEdgeStyle;rounded=0;orthogonalLoop=1;jettySize=auto;html=1;exitX=1;exitY=0.5;exitDx=0;exitDy=0;exitPerimeter=0;startArrow=openThin;startFill=0;" edge="1" parent="fxDg-fmvhUHf-UqMxetp-14" source="fxDg-fmvhUHf-UqMxetp-16" target="fxDg-fmvhUHf-UqMxetp-17">
          <mxGeometry relative="1" as="geometry" />
        </mxCell>
        <mxCell id="fxDg-fmvhUHf-UqMxetp-16" value="MongoDB&lt;br&gt;&lt;div&gt;repl0&lt;/div&gt;" style="shape=cylinder3;whiteSpace=wrap;html=1;boundedLbl=1;backgroundOutline=1;size=15;" vertex="1" parent="fxDg-fmvhUHf-UqMxetp-14">
          <mxGeometry y="100" width="60" height="80" as="geometry" />
        </mxCell>
        <mxCell id="fxDg-fmvhUHf-UqMxetp-17" value="MongoDB&lt;br&gt;&lt;div&gt;repl2&lt;/div&gt;" style="shape=cylinder3;whiteSpace=wrap;html=1;boundedLbl=1;backgroundOutline=1;size=15;" vertex="1" parent="fxDg-fmvhUHf-UqMxetp-14">
          <mxGeometry x="160" y="100" width="60" height="80" as="geometry" />
        </mxCell>
        <mxCell id="fxDg-fmvhUHf-UqMxetp-18" value="MongoDB&lt;br&gt;&lt;div&gt;repl1&lt;/div&gt;" style="shape=cylinder3;whiteSpace=wrap;html=1;boundedLbl=1;backgroundOutline=1;size=15;" vertex="1" parent="fxDg-fmvhUHf-UqMxetp-14">
          <mxGeometry x="80" y="-20" width="60" height="80" as="geometry" />
        </mxCell>
        <mxCell id="fxDg-fmvhUHf-UqMxetp-19" style="edgeStyle=orthogonalEdgeStyle;rounded=0;orthogonalLoop=1;jettySize=auto;html=1;exitX=0;exitY=0.5;exitDx=0;exitDy=0;exitPerimeter=0;entryX=0.5;entryY=0;entryDx=0;entryDy=0;entryPerimeter=0;startArrow=openThin;startFill=0;" edge="1" parent="fxDg-fmvhUHf-UqMxetp-14" source="fxDg-fmvhUHf-UqMxetp-18" target="fxDg-fmvhUHf-UqMxetp-16">
          <mxGeometry relative="1" as="geometry" />
        </mxCell>
        <mxCell id="fxDg-fmvhUHf-UqMxetp-20" style="edgeStyle=orthogonalEdgeStyle;rounded=0;orthogonalLoop=1;jettySize=auto;html=1;exitX=1;exitY=0.5;exitDx=0;exitDy=0;exitPerimeter=0;entryX=0.5;entryY=0;entryDx=0;entryDy=0;entryPerimeter=0;startArrow=classic;startFill=1;" edge="1" parent="fxDg-fmvhUHf-UqMxetp-14" source="fxDg-fmvhUHf-UqMxetp-18" target="fxDg-fmvhUHf-UqMxetp-17">
          <mxGeometry relative="1" as="geometry" />
        </mxCell>
        <mxCell id="fxDg-fmvhUHf-UqMxetp-21" value="" style="group" vertex="1" connectable="0" parent="fxDg-fmvhUHf-UqMxetp-1">
          <mxGeometry x="650" y="480" width="240" height="220" as="geometry" />
        </mxCell>
        <mxCell id="fxDg-fmvhUHf-UqMxetp-22" value="shard2" style="rounded=0;whiteSpace=wrap;html=1;" vertex="1" parent="fxDg-fmvhUHf-UqMxetp-21">
          <mxGeometry width="240" height="220" as="geometry" />
        </mxCell>
        <mxCell id="fxDg-fmvhUHf-UqMxetp-23" value="" style="group" vertex="1" connectable="0" parent="fxDg-fmvhUHf-UqMxetp-21">
          <mxGeometry x="10" y="30" width="220" height="180" as="geometry" />
        </mxCell>
        <mxCell id="fxDg-fmvhUHf-UqMxetp-24" style="edgeStyle=orthogonalEdgeStyle;rounded=0;orthogonalLoop=1;jettySize=auto;html=1;exitX=1;exitY=0.5;exitDx=0;exitDy=0;exitPerimeter=0;startArrow=openThin;startFill=0;" edge="1" parent="fxDg-fmvhUHf-UqMxetp-23" source="fxDg-fmvhUHf-UqMxetp-25" target="fxDg-fmvhUHf-UqMxetp-26">
          <mxGeometry relative="1" as="geometry" />
        </mxCell>
        <mxCell id="fxDg-fmvhUHf-UqMxetp-25" value="MongoDB&lt;br&gt;&lt;div&gt;repl0&lt;/div&gt;" style="shape=cylinder3;whiteSpace=wrap;html=1;boundedLbl=1;backgroundOutline=1;size=15;" vertex="1" parent="fxDg-fmvhUHf-UqMxetp-23">
          <mxGeometry y="100" width="60" height="80" as="geometry" />
        </mxCell>
        <mxCell id="fxDg-fmvhUHf-UqMxetp-26" value="MongoDB&lt;br&gt;&lt;div&gt;repl2&lt;/div&gt;" style="shape=cylinder3;whiteSpace=wrap;html=1;boundedLbl=1;backgroundOutline=1;size=15;" vertex="1" parent="fxDg-fmvhUHf-UqMxetp-23">
          <mxGeometry x="160" y="100" width="60" height="80" as="geometry" />
        </mxCell>
        <mxCell id="fxDg-fmvhUHf-UqMxetp-27" value="MongoDB&lt;br&gt;&lt;div&gt;repl1&lt;/div&gt;" style="shape=cylinder3;whiteSpace=wrap;html=1;boundedLbl=1;backgroundOutline=1;size=15;" vertex="1" parent="fxDg-fmvhUHf-UqMxetp-23">
          <mxGeometry x="80" y="-20" width="60" height="80" as="geometry" />
        </mxCell>
        <mxCell id="fxDg-fmvhUHf-UqMxetp-28" style="edgeStyle=orthogonalEdgeStyle;rounded=0;orthogonalLoop=1;jettySize=auto;html=1;exitX=0;exitY=0.5;exitDx=0;exitDy=0;exitPerimeter=0;entryX=0.5;entryY=0;entryDx=0;entryDy=0;entryPerimeter=0;startArrow=openThin;startFill=0;" edge="1" parent="fxDg-fmvhUHf-UqMxetp-23" source="fxDg-fmvhUHf-UqMxetp-27" target="fxDg-fmvhUHf-UqMxetp-25">
          <mxGeometry relative="1" as="geometry" />
        </mxCell>
        <mxCell id="fxDg-fmvhUHf-UqMxetp-29" style="edgeStyle=orthogonalEdgeStyle;rounded=0;orthogonalLoop=1;jettySize=auto;html=1;exitX=1;exitY=0.5;exitDx=0;exitDy=0;exitPerimeter=0;entryX=0.5;entryY=0;entryDx=0;entryDy=0;entryPerimeter=0;startArrow=classic;startFill=1;" edge="1" parent="fxDg-fmvhUHf-UqMxetp-23" source="fxDg-fmvhUHf-UqMxetp-27" target="fxDg-fmvhUHf-UqMxetp-26">
          <mxGeometry relative="1" as="geometry" />
        </mxCell>
        <mxCell id="8tiHlDGAkMG_AVuabsp7-0" value="redis" style="shape=cylinder3;whiteSpace=wrap;html=1;boundedLbl=1;backgroundOutline=1;size=15;" vertex="1" parent="fxDg-fmvhUHf-UqMxetp-1">
          <mxGeometry x="200" y="590" width="60" height="80" as="geometry" />
        </mxCell>
        <mxCell id="8tiHlDGAkMG_AVuabsp7-1" style="edgeStyle=orthogonalEdgeStyle;rounded=0;orthogonalLoop=1;jettySize=auto;html=1;exitX=0.5;exitY=1;exitDx=0;exitDy=0;entryX=0.5;entryY=0;entryDx=0;entryDy=0;entryPerimeter=0;" edge="1" parent="fxDg-fmvhUHf-UqMxetp-1" source="fxDg-fmvhUHf-UqMxetp-3" target="8tiHlDGAkMG_AVuabsp7-0">
          <mxGeometry relative="1" as="geometry" />
        </mxCell>
      </root>
    </mxGraphModel>
  </diagram>
  <diagram name="api-shards-repl-cache" id="Ojz7CrvYcD_KoiikX7P5">
    <mxGraphModel dx="1556" dy="922" grid="1" gridSize="10" guides="1" tooltips="1" connect="1" arrows="1" fold="1" page="1" pageScale="1" pageWidth="1169" pageHeight="827" math="0" shadow="0">
      <root>
        <mxCell id="PMrcxANC8TGuvZL-yIvS-0" />
        <mxCell id="PMrcxANC8TGuvZL-yIvS-1" parent="PMrcxANC8TGuvZL-yIvS-0" />
        <mxCell id="PMrcxANC8TGuvZL-yIvS-2" value="data" style="rounded=0;whiteSpace=wrap;html=1;" vertex="1" parent="PMrcxANC8TGuvZL-yIvS-1">
          <mxGeometry x="760" y="190" width="360" height="510" as="geometry" />
        </mxCell>
        <mxCell id="PMrcxANC8TGuvZL-yIvS-4" style="edgeStyle=orthogonalEdgeStyle;rounded=0;orthogonalLoop=1;jettySize=auto;html=1;exitX=1;exitY=0.5;exitDx=0;exitDy=0;entryX=0;entryY=0.5;entryDx=0;entryDy=0;entryPerimeter=0;" edge="1" parent="PMrcxANC8TGuvZL-yIvS-1" source="PMrcxANC8TGuvZL-yIvS-3" target="PMrcxANC8TGuvZL-yIvS-5">
          <mxGeometry relative="1" as="geometry">
            <mxPoint x="540" y="310" as="targetPoint" />
          </mxGeometry>
        </mxCell>
        <mxCell id="PMrcxANC8TGuvZL-yIvS-5" value="MongoDB&lt;br&gt;Router" style="shape=cylinder3;whiteSpace=wrap;html=1;boundedLbl=1;backgroundOutline=1;size=15;" vertex="1" parent="PMrcxANC8TGuvZL-yIvS-1">
          <mxGeometry x="550" y="430" width="60" height="80" as="geometry" />
        </mxCell>
        <mxCell id="PMrcxANC8TGuvZL-yIvS-6" value="MongoDB&lt;br&gt;Config" style="shape=cylinder3;whiteSpace=wrap;html=1;boundedLbl=1;backgroundOutline=1;size=15;" vertex="1" parent="PMrcxANC8TGuvZL-yIvS-1">
          <mxGeometry x="550" y="90" width="60" height="80" as="geometry" />
        </mxCell>
        <mxCell id="PMrcxANC8TGuvZL-yIvS-7" style="edgeStyle=orthogonalEdgeStyle;rounded=0;orthogonalLoop=1;jettySize=auto;html=1;exitX=0.5;exitY=1;exitDx=0;exitDy=0;exitPerimeter=0;entryX=0.5;entryY=0;entryDx=0;entryDy=0;entryPerimeter=0;" edge="1" parent="PMrcxANC8TGuvZL-yIvS-1" source="PMrcxANC8TGuvZL-yIvS-6" target="PMrcxANC8TGuvZL-yIvS-5">
          <mxGeometry relative="1" as="geometry" />
        </mxCell>
        <mxCell id="PMrcxANC8TGuvZL-yIvS-8" value="Shards info" style="edgeLabel;html=1;align=center;verticalAlign=middle;resizable=0;points=[];" vertex="1" connectable="0" parent="PMrcxANC8TGuvZL-yIvS-7">
          <mxGeometry x="-0.12" y="-1" relative="1" as="geometry">
            <mxPoint as="offset" />
          </mxGeometry>
        </mxCell>
        <mxCell id="PMrcxANC8TGuvZL-yIvS-9" style="edgeStyle=orthogonalEdgeStyle;rounded=0;orthogonalLoop=1;jettySize=auto;html=1;exitX=1;exitY=0;exitDx=0;exitDy=27.5;exitPerimeter=0;entryX=0;entryY=0.5;entryDx=0;entryDy=0;" edge="1" parent="PMrcxANC8TGuvZL-yIvS-1" source="PMrcxANC8TGuvZL-yIvS-5" target="PMrcxANC8TGuvZL-yIvS-13">
          <mxGeometry relative="1" as="geometry">
            <mxPoint x="769.9999999999998" y="250" as="targetPoint" />
          </mxGeometry>
        </mxCell>
        <mxCell id="PMrcxANC8TGuvZL-yIvS-10" style="edgeStyle=orthogonalEdgeStyle;rounded=0;orthogonalLoop=1;jettySize=auto;html=1;exitX=1;exitY=0;exitDx=0;exitDy=52.5;exitPerimeter=0;" edge="1" parent="PMrcxANC8TGuvZL-yIvS-1" source="PMrcxANC8TGuvZL-yIvS-5" target="PMrcxANC8TGuvZL-yIvS-22">
          <mxGeometry relative="1" as="geometry">
            <mxPoint x="769.5799999999997" y="409.52" as="targetPoint" />
          </mxGeometry>
        </mxCell>
        <mxCell id="PMrcxANC8TGuvZL-yIvS-11" style="edgeStyle=orthogonalEdgeStyle;rounded=0;orthogonalLoop=1;jettySize=auto;html=1;exitX=0.5;exitY=0;exitDx=0;exitDy=0;entryX=1;entryY=0.5;entryDx=0;entryDy=0;entryPerimeter=0;" edge="1" parent="PMrcxANC8TGuvZL-yIvS-1" source="PMrcxANC8TGuvZL-yIvS-2" target="PMrcxANC8TGuvZL-yIvS-6">
          <mxGeometry relative="1" as="geometry" />
        </mxCell>
        <mxCell id="PMrcxANC8TGuvZL-yIvS-12" value="" style="group" vertex="1" connectable="0" parent="PMrcxANC8TGuvZL-yIvS-1">
          <mxGeometry x="810" y="200" width="240" height="220" as="geometry" />
        </mxCell>
        <mxCell id="PMrcxANC8TGuvZL-yIvS-13" value="shard1" style="rounded=0;whiteSpace=wrap;html=1;" vertex="1" parent="PMrcxANC8TGuvZL-yIvS-12">
          <mxGeometry width="240" height="220" as="geometry" />
        </mxCell>
        <mxCell id="PMrcxANC8TGuvZL-yIvS-14" value="" style="group" vertex="1" connectable="0" parent="PMrcxANC8TGuvZL-yIvS-12">
          <mxGeometry x="10" y="30" width="220" height="180" as="geometry" />
        </mxCell>
        <mxCell id="PMrcxANC8TGuvZL-yIvS-15" style="edgeStyle=orthogonalEdgeStyle;rounded=0;orthogonalLoop=1;jettySize=auto;html=1;exitX=1;exitY=0.5;exitDx=0;exitDy=0;exitPerimeter=0;startArrow=openThin;startFill=0;" edge="1" parent="PMrcxANC8TGuvZL-yIvS-14" source="PMrcxANC8TGuvZL-yIvS-16" target="PMrcxANC8TGuvZL-yIvS-17">
          <mxGeometry relative="1" as="geometry" />
        </mxCell>
        <mxCell id="PMrcxANC8TGuvZL-yIvS-16" value="MongoDB&lt;br&gt;&lt;div&gt;repl0&lt;/div&gt;" style="shape=cylinder3;whiteSpace=wrap;html=1;boundedLbl=1;backgroundOutline=1;size=15;" vertex="1" parent="PMrcxANC8TGuvZL-yIvS-14">
          <mxGeometry y="100" width="60" height="80" as="geometry" />
        </mxCell>
        <mxCell id="PMrcxANC8TGuvZL-yIvS-17" value="MongoDB&lt;br&gt;&lt;div&gt;repl2&lt;/div&gt;" style="shape=cylinder3;whiteSpace=wrap;html=1;boundedLbl=1;backgroundOutline=1;size=15;" vertex="1" parent="PMrcxANC8TGuvZL-yIvS-14">
          <mxGeometry x="160" y="100" width="60" height="80" as="geometry" />
        </mxCell>
        <mxCell id="PMrcxANC8TGuvZL-yIvS-18" value="MongoDB&lt;br&gt;&lt;div&gt;repl1&lt;/div&gt;" style="shape=cylinder3;whiteSpace=wrap;html=1;boundedLbl=1;backgroundOutline=1;size=15;" vertex="1" parent="PMrcxANC8TGuvZL-yIvS-14">
          <mxGeometry x="80" y="-20" width="60" height="80" as="geometry" />
        </mxCell>
        <mxCell id="PMrcxANC8TGuvZL-yIvS-19" style="edgeStyle=orthogonalEdgeStyle;rounded=0;orthogonalLoop=1;jettySize=auto;html=1;exitX=0;exitY=0.5;exitDx=0;exitDy=0;exitPerimeter=0;entryX=0.5;entryY=0;entryDx=0;entryDy=0;entryPerimeter=0;startArrow=openThin;startFill=0;" edge="1" parent="PMrcxANC8TGuvZL-yIvS-14" source="PMrcxANC8TGuvZL-yIvS-18" target="PMrcxANC8TGuvZL-yIvS-16">
          <mxGeometry relative="1" as="geometry" />
        </mxCell>
        <mxCell id="PMrcxANC8TGuvZL-yIvS-20" style="edgeStyle=orthogonalEdgeStyle;rounded=0;orthogonalLoop=1;jettySize=auto;html=1;exitX=1;exitY=0.5;exitDx=0;exitDy=0;exitPerimeter=0;entryX=0.5;entryY=0;entryDx=0;entryDy=0;entryPerimeter=0;startArrow=classic;startFill=1;" edge="1" parent="PMrcxANC8TGuvZL-yIvS-14" source="PMrcxANC8TGuvZL-yIvS-18" target="PMrcxANC8TGuvZL-yIvS-17">
          <mxGeometry relative="1" as="geometry" />
        </mxCell>
        <mxCell id="PMrcxANC8TGuvZL-yIvS-21" value="" style="group" vertex="1" connectable="0" parent="PMrcxANC8TGuvZL-yIvS-1">
          <mxGeometry x="810" y="470" width="240" height="220" as="geometry" />
        </mxCell>
        <mxCell id="PMrcxANC8TGuvZL-yIvS-22" value="shard2" style="rounded=0;whiteSpace=wrap;html=1;" vertex="1" parent="PMrcxANC8TGuvZL-yIvS-21">
          <mxGeometry width="240" height="220" as="geometry" />
        </mxCell>
        <mxCell id="PMrcxANC8TGuvZL-yIvS-23" value="" style="group" vertex="1" connectable="0" parent="PMrcxANC8TGuvZL-yIvS-21">
          <mxGeometry x="10" y="30" width="220" height="180" as="geometry" />
        </mxCell>
        <mxCell id="PMrcxANC8TGuvZL-yIvS-24" style="edgeStyle=orthogonalEdgeStyle;rounded=0;orthogonalLoop=1;jettySize=auto;html=1;exitX=1;exitY=0.5;exitDx=0;exitDy=0;exitPerimeter=0;startArrow=openThin;startFill=0;" edge="1" parent="PMrcxANC8TGuvZL-yIvS-23" source="PMrcxANC8TGuvZL-yIvS-25" target="PMrcxANC8TGuvZL-yIvS-26">
          <mxGeometry relative="1" as="geometry" />
        </mxCell>
        <mxCell id="PMrcxANC8TGuvZL-yIvS-25" value="MongoDB&lt;br&gt;&lt;div&gt;repl0&lt;/div&gt;" style="shape=cylinder3;whiteSpace=wrap;html=1;boundedLbl=1;backgroundOutline=1;size=15;" vertex="1" parent="PMrcxANC8TGuvZL-yIvS-23">
          <mxGeometry y="100" width="60" height="80" as="geometry" />
        </mxCell>
        <mxCell id="PMrcxANC8TGuvZL-yIvS-26" value="MongoDB&lt;br&gt;&lt;div&gt;repl2&lt;/div&gt;" style="shape=cylinder3;whiteSpace=wrap;html=1;boundedLbl=1;backgroundOutline=1;size=15;" vertex="1" parent="PMrcxANC8TGuvZL-yIvS-23">
          <mxGeometry x="160" y="100" width="60" height="80" as="geometry" />
        </mxCell>
        <mxCell id="PMrcxANC8TGuvZL-yIvS-27" value="MongoDB&lt;br&gt;&lt;div&gt;repl1&lt;/div&gt;" style="shape=cylinder3;whiteSpace=wrap;html=1;boundedLbl=1;backgroundOutline=1;size=15;" vertex="1" parent="PMrcxANC8TGuvZL-yIvS-23">
          <mxGeometry x="80" y="-20" width="60" height="80" as="geometry" />
        </mxCell>
        <mxCell id="PMrcxANC8TGuvZL-yIvS-28" style="edgeStyle=orthogonalEdgeStyle;rounded=0;orthogonalLoop=1;jettySize=auto;html=1;exitX=0;exitY=0.5;exitDx=0;exitDy=0;exitPerimeter=0;entryX=0.5;entryY=0;entryDx=0;entryDy=0;entryPerimeter=0;startArrow=openThin;startFill=0;" edge="1" parent="PMrcxANC8TGuvZL-yIvS-23" source="PMrcxANC8TGuvZL-yIvS-27" target="PMrcxANC8TGuvZL-yIvS-25">
          <mxGeometry relative="1" as="geometry" />
        </mxCell>
        <mxCell id="PMrcxANC8TGuvZL-yIvS-29" style="edgeStyle=orthogonalEdgeStyle;rounded=0;orthogonalLoop=1;jettySize=auto;html=1;exitX=1;exitY=0.5;exitDx=0;exitDy=0;exitPerimeter=0;entryX=0.5;entryY=0;entryDx=0;entryDy=0;entryPerimeter=0;startArrow=classic;startFill=1;" edge="1" parent="PMrcxANC8TGuvZL-yIvS-23" source="PMrcxANC8TGuvZL-yIvS-27" target="PMrcxANC8TGuvZL-yIvS-26">
          <mxGeometry relative="1" as="geometry" />
        </mxCell>
        <mxCell id="PMrcxANC8TGuvZL-yIvS-30" value="redis" style="shape=cylinder3;whiteSpace=wrap;html=1;boundedLbl=1;backgroundOutline=1;size=15;" vertex="1" parent="PMrcxANC8TGuvZL-yIvS-1">
          <mxGeometry x="360" y="580" width="60" height="80" as="geometry" />
        </mxCell>
        <mxCell id="PMrcxANC8TGuvZL-yIvS-31" style="edgeStyle=orthogonalEdgeStyle;rounded=0;orthogonalLoop=1;jettySize=auto;html=1;exitX=0.5;exitY=1;exitDx=0;exitDy=0;entryX=0.5;entryY=0;entryDx=0;entryDy=0;entryPerimeter=0;" edge="1" parent="PMrcxANC8TGuvZL-yIvS-1" source="PMrcxANC8TGuvZL-yIvS-3" target="PMrcxANC8TGuvZL-yIvS-30">
          <mxGeometry relative="1" as="geometry" />
        </mxCell>
        <mxCell id="N3iY6UN6ExI0EM_Ibw4b-5" style="edgeStyle=orthogonalEdgeStyle;rounded=0;orthogonalLoop=1;jettySize=auto;html=1;exitX=0.5;exitY=0;exitDx=0;exitDy=0;entryX=0;entryY=0.5;entryDx=0;entryDy=0;" edge="1" parent="PMrcxANC8TGuvZL-yIvS-1" source="N3iY6UN6ExI0EM_Ibw4b-0" target="N3iY6UN6ExI0EM_Ibw4b-1">
          <mxGeometry relative="1" as="geometry" />
        </mxCell>
        <mxCell id="N3iY6UN6ExI0EM_Ibw4b-0" value="api&lt;div&gt;gateway&lt;/div&gt;" style="rounded=1;whiteSpace=wrap;html=1;" vertex="1" parent="PMrcxANC8TGuvZL-yIvS-1">
          <mxGeometry x="100" y="440" width="120" height="60" as="geometry" />
        </mxCell>
        <mxCell id="N3iY6UN6ExI0EM_Ibw4b-1" value="consul" style="rounded=1;whiteSpace=wrap;html=1;" vertex="1" parent="PMrcxANC8TGuvZL-yIvS-1">
          <mxGeometry x="210" y="290" width="120" height="60" as="geometry" />
        </mxCell>
        <mxCell id="N3iY6UN6ExI0EM_Ibw4b-4" value="" style="group" vertex="1" connectable="0" parent="PMrcxANC8TGuvZL-yIvS-1">
          <mxGeometry x="330" y="440" width="130" height="70" as="geometry" />
        </mxCell>
        <mxCell id="PMrcxANC8TGuvZL-yIvS-3" value="pymongo-api" style="rounded=1;whiteSpace=wrap;html=1;" vertex="1" parent="N3iY6UN6ExI0EM_Ibw4b-4">
          <mxGeometry width="120" height="60" as="geometry" />
        </mxCell>
        <mxCell id="N3iY6UN6ExI0EM_Ibw4b-2" value="pymongo-api" style="rounded=1;whiteSpace=wrap;html=1;" vertex="1" parent="N3iY6UN6ExI0EM_Ibw4b-4">
          <mxGeometry x="10" y="10" width="120" height="60" as="geometry" />
        </mxCell>
        <mxCell id="N3iY6UN6ExI0EM_Ibw4b-6" style="edgeStyle=orthogonalEdgeStyle;rounded=0;orthogonalLoop=1;jettySize=auto;html=1;exitX=0.5;exitY=0;exitDx=0;exitDy=0;entryX=1;entryY=0.5;entryDx=0;entryDy=0;" edge="1" parent="PMrcxANC8TGuvZL-yIvS-1" source="PMrcxANC8TGuvZL-yIvS-3" target="N3iY6UN6ExI0EM_Ibw4b-1">
          <mxGeometry relative="1" as="geometry" />
        </mxCell>
        <mxCell id="N3iY6UN6ExI0EM_Ibw4b-3" style="edgeStyle=orthogonalEdgeStyle;rounded=0;orthogonalLoop=1;jettySize=auto;html=1;exitX=1;exitY=0.5;exitDx=0;exitDy=0;entryX=0;entryY=0.5;entryDx=0;entryDy=0;" edge="1" parent="PMrcxANC8TGuvZL-yIvS-1" source="N3iY6UN6ExI0EM_Ibw4b-0" target="PMrcxANC8TGuvZL-yIvS-3">
          <mxGeometry relative="1" as="geometry">
            <mxPoint x="290" y="520" as="targetPoint" />
          </mxGeometry>
        </mxCell>
      </root>
    </mxGraphModel>
  </diagram>
  <diagram name="final" id="QCX_9UGL-bxn-H4BO7FU">
    <mxGraphModel dx="1556" dy="922" grid="1" gridSize="10" guides="1" tooltips="1" connect="1" arrows="1" fold="1" page="1" pageScale="1" pageWidth="1169" pageHeight="827" math="0" shadow="0">
      <root>
        <mxCell id="ZCTAkGND3LWrQvHKGTcM-0" />
        <mxCell id="ZCTAkGND3LWrQvHKGTcM-1" parent="ZCTAkGND3LWrQvHKGTcM-0" />
        <mxCell id="ZCTAkGND3LWrQvHKGTcM-2" value="data" style="rounded=0;whiteSpace=wrap;html=1;" vertex="1" parent="ZCTAkGND3LWrQvHKGTcM-1">
          <mxGeometry x="900" y="190" width="360" height="510" as="geometry" />
        </mxCell>
        <mxCell id="ZCTAkGND3LWrQvHKGTcM-3" style="edgeStyle=orthogonalEdgeStyle;rounded=0;orthogonalLoop=1;jettySize=auto;html=1;exitX=1;exitY=0.5;exitDx=0;exitDy=0;entryX=0;entryY=0.5;entryDx=0;entryDy=0;entryPerimeter=0;" edge="1" parent="ZCTAkGND3LWrQvHKGTcM-1" source="ZCTAkGND3LWrQvHKGTcM-35" target="ZCTAkGND3LWrQvHKGTcM-4">
          <mxGeometry relative="1" as="geometry">
            <mxPoint x="680" y="310" as="targetPoint" />
          </mxGeometry>
        </mxCell>
        <mxCell id="ZCTAkGND3LWrQvHKGTcM-4" value="MongoDB&lt;br&gt;Router" style="shape=cylinder3;whiteSpace=wrap;html=1;boundedLbl=1;backgroundOutline=1;size=15;" vertex="1" parent="ZCTAkGND3LWrQvHKGTcM-1">
          <mxGeometry x="690" y="430" width="60" height="80" as="geometry" />
        </mxCell>
        <mxCell id="ZCTAkGND3LWrQvHKGTcM-5" value="MongoDB&lt;br&gt;Config" style="shape=cylinder3;whiteSpace=wrap;html=1;boundedLbl=1;backgroundOutline=1;size=15;" vertex="1" parent="ZCTAkGND3LWrQvHKGTcM-1">
          <mxGeometry x="690" y="90" width="60" height="80" as="geometry" />
        </mxCell>
        <mxCell id="ZCTAkGND3LWrQvHKGTcM-6" style="edgeStyle=orthogonalEdgeStyle;rounded=0;orthogonalLoop=1;jettySize=auto;html=1;exitX=0.5;exitY=1;exitDx=0;exitDy=0;exitPerimeter=0;entryX=0.5;entryY=0;entryDx=0;entryDy=0;entryPerimeter=0;" edge="1" parent="ZCTAkGND3LWrQvHKGTcM-1" source="ZCTAkGND3LWrQvHKGTcM-5" target="ZCTAkGND3LWrQvHKGTcM-4">
          <mxGeometry relative="1" as="geometry" />
        </mxCell>
        <mxCell id="ZCTAkGND3LWrQvHKGTcM-7" value="Shards info" style="edgeLabel;html=1;align=center;verticalAlign=middle;resizable=0;points=[];" vertex="1" connectable="0" parent="ZCTAkGND3LWrQvHKGTcM-6">
          <mxGeometry x="-0.12" y="-1" relative="1" as="geometry">
            <mxPoint as="offset" />
          </mxGeometry>
        </mxCell>
        <mxCell id="ZCTAkGND3LWrQvHKGTcM-8" style="edgeStyle=orthogonalEdgeStyle;rounded=0;orthogonalLoop=1;jettySize=auto;html=1;exitX=1;exitY=0;exitDx=0;exitDy=27.5;exitPerimeter=0;entryX=0;entryY=0.5;entryDx=0;entryDy=0;" edge="1" parent="ZCTAkGND3LWrQvHKGTcM-1" source="ZCTAkGND3LWrQvHKGTcM-4" target="ZCTAkGND3LWrQvHKGTcM-12">
          <mxGeometry relative="1" as="geometry">
            <mxPoint x="909.9999999999998" y="250" as="targetPoint" />
          </mxGeometry>
        </mxCell>
        <mxCell id="ZCTAkGND3LWrQvHKGTcM-9" style="edgeStyle=orthogonalEdgeStyle;rounded=0;orthogonalLoop=1;jettySize=auto;html=1;exitX=1;exitY=0;exitDx=0;exitDy=52.5;exitPerimeter=0;" edge="1" parent="ZCTAkGND3LWrQvHKGTcM-1" source="ZCTAkGND3LWrQvHKGTcM-4" target="ZCTAkGND3LWrQvHKGTcM-21">
          <mxGeometry relative="1" as="geometry">
            <mxPoint x="909.5799999999997" y="409.52" as="targetPoint" />
          </mxGeometry>
        </mxCell>
        <mxCell id="ZCTAkGND3LWrQvHKGTcM-10" style="edgeStyle=orthogonalEdgeStyle;rounded=0;orthogonalLoop=1;jettySize=auto;html=1;exitX=0.5;exitY=0;exitDx=0;exitDy=0;entryX=1;entryY=0.5;entryDx=0;entryDy=0;entryPerimeter=0;" edge="1" parent="ZCTAkGND3LWrQvHKGTcM-1" source="ZCTAkGND3LWrQvHKGTcM-2" target="ZCTAkGND3LWrQvHKGTcM-5">
          <mxGeometry relative="1" as="geometry" />
        </mxCell>
        <mxCell id="ZCTAkGND3LWrQvHKGTcM-11" value="" style="group" vertex="1" connectable="0" parent="ZCTAkGND3LWrQvHKGTcM-1">
          <mxGeometry x="950" y="200" width="240" height="220" as="geometry" />
        </mxCell>
        <mxCell id="ZCTAkGND3LWrQvHKGTcM-12" value="shard1" style="rounded=0;whiteSpace=wrap;html=1;" vertex="1" parent="ZCTAkGND3LWrQvHKGTcM-11">
          <mxGeometry width="240" height="220" as="geometry" />
        </mxCell>
        <mxCell id="ZCTAkGND3LWrQvHKGTcM-13" value="" style="group" vertex="1" connectable="0" parent="ZCTAkGND3LWrQvHKGTcM-11">
          <mxGeometry x="10" y="30" width="220" height="180" as="geometry" />
        </mxCell>
        <mxCell id="ZCTAkGND3LWrQvHKGTcM-14" style="edgeStyle=orthogonalEdgeStyle;rounded=0;orthogonalLoop=1;jettySize=auto;html=1;exitX=1;exitY=0.5;exitDx=0;exitDy=0;exitPerimeter=0;startArrow=openThin;startFill=0;" edge="1" parent="ZCTAkGND3LWrQvHKGTcM-13" source="ZCTAkGND3LWrQvHKGTcM-15" target="ZCTAkGND3LWrQvHKGTcM-16">
          <mxGeometry relative="1" as="geometry" />
        </mxCell>
        <mxCell id="ZCTAkGND3LWrQvHKGTcM-15" value="MongoDB&lt;br&gt;&lt;div&gt;repl0&lt;/div&gt;" style="shape=cylinder3;whiteSpace=wrap;html=1;boundedLbl=1;backgroundOutline=1;size=15;" vertex="1" parent="ZCTAkGND3LWrQvHKGTcM-13">
          <mxGeometry y="100" width="60" height="80" as="geometry" />
        </mxCell>
        <mxCell id="ZCTAkGND3LWrQvHKGTcM-16" value="MongoDB&lt;br&gt;&lt;div&gt;repl2&lt;/div&gt;" style="shape=cylinder3;whiteSpace=wrap;html=1;boundedLbl=1;backgroundOutline=1;size=15;" vertex="1" parent="ZCTAkGND3LWrQvHKGTcM-13">
          <mxGeometry x="160" y="100" width="60" height="80" as="geometry" />
        </mxCell>
        <mxCell id="ZCTAkGND3LWrQvHKGTcM-17" value="MongoDB&lt;br&gt;&lt;div&gt;repl1&lt;/div&gt;" style="shape=cylinder3;whiteSpace=wrap;html=1;boundedLbl=1;backgroundOutline=1;size=15;" vertex="1" parent="ZCTAkGND3LWrQvHKGTcM-13">
          <mxGeometry x="80" y="-20" width="60" height="80" as="geometry" />
        </mxCell>
        <mxCell id="ZCTAkGND3LWrQvHKGTcM-18" style="edgeStyle=orthogonalEdgeStyle;rounded=0;orthogonalLoop=1;jettySize=auto;html=1;exitX=0;exitY=0.5;exitDx=0;exitDy=0;exitPerimeter=0;entryX=0.5;entryY=0;entryDx=0;entryDy=0;entryPerimeter=0;startArrow=openThin;startFill=0;" edge="1" parent="ZCTAkGND3LWrQvHKGTcM-13" source="ZCTAkGND3LWrQvHKGTcM-17" target="ZCTAkGND3LWrQvHKGTcM-15">
          <mxGeometry relative="1" as="geometry" />
        </mxCell>
        <mxCell id="ZCTAkGND3LWrQvHKGTcM-19" style="edgeStyle=orthogonalEdgeStyle;rounded=0;orthogonalLoop=1;jettySize=auto;html=1;exitX=1;exitY=0.5;exitDx=0;exitDy=0;exitPerimeter=0;entryX=0.5;entryY=0;entryDx=0;entryDy=0;entryPerimeter=0;startArrow=classic;startFill=1;" edge="1" parent="ZCTAkGND3LWrQvHKGTcM-13" source="ZCTAkGND3LWrQvHKGTcM-17" target="ZCTAkGND3LWrQvHKGTcM-16">
          <mxGeometry relative="1" as="geometry" />
        </mxCell>
        <mxCell id="ZCTAkGND3LWrQvHKGTcM-20" value="" style="group" vertex="1" connectable="0" parent="ZCTAkGND3LWrQvHKGTcM-1">
          <mxGeometry x="950" y="470" width="240" height="220" as="geometry" />
        </mxCell>
        <mxCell id="ZCTAkGND3LWrQvHKGTcM-21" value="shard2" style="rounded=0;whiteSpace=wrap;html=1;" vertex="1" parent="ZCTAkGND3LWrQvHKGTcM-20">
          <mxGeometry width="240" height="220" as="geometry" />
        </mxCell>
        <mxCell id="ZCTAkGND3LWrQvHKGTcM-22" value="" style="group" vertex="1" connectable="0" parent="ZCTAkGND3LWrQvHKGTcM-20">
          <mxGeometry x="10" y="30" width="220" height="180" as="geometry" />
        </mxCell>
        <mxCell id="ZCTAkGND3LWrQvHKGTcM-23" style="edgeStyle=orthogonalEdgeStyle;rounded=0;orthogonalLoop=1;jettySize=auto;html=1;exitX=1;exitY=0.5;exitDx=0;exitDy=0;exitPerimeter=0;startArrow=openThin;startFill=0;" edge="1" parent="ZCTAkGND3LWrQvHKGTcM-22" source="ZCTAkGND3LWrQvHKGTcM-24" target="ZCTAkGND3LWrQvHKGTcM-25">
          <mxGeometry relative="1" as="geometry" />
        </mxCell>
        <mxCell id="ZCTAkGND3LWrQvHKGTcM-24" value="MongoDB&lt;br&gt;&lt;div&gt;repl0&lt;/div&gt;" style="shape=cylinder3;whiteSpace=wrap;html=1;boundedLbl=1;backgroundOutline=1;size=15;" vertex="1" parent="ZCTAkGND3LWrQvHKGTcM-22">
          <mxGeometry y="100" width="60" height="80" as="geometry" />
        </mxCell>
        <mxCell id="ZCTAkGND3LWrQvHKGTcM-25" value="MongoDB&lt;br&gt;&lt;div&gt;repl2&lt;/div&gt;" style="shape=cylinder3;whiteSpace=wrap;html=1;boundedLbl=1;backgroundOutline=1;size=15;" vertex="1" parent="ZCTAkGND3LWrQvHKGTcM-22">
          <mxGeometry x="160" y="100" width="60" height="80" as="geometry" />
        </mxCell>
        <mxCell id="ZCTAkGND3LWrQvHKGTcM-26" value="MongoDB&lt;br&gt;&lt;div&gt;repl1&lt;/div&gt;" style="shape=cylinder3;whiteSpace=wrap;html=1;boundedLbl=1;backgroundOutline=1;size=15;" vertex="1" parent="ZCTAkGND3LWrQvHKGTcM-22">
          <mxGeometry x="80" y="-20" width="60" height="80" as="geometry" />
        </mxCell>
        <mxCell id="ZCTAkGND3LWrQvHKGTcM-27" style="edgeStyle=orthogonalEdgeStyle;rounded=0;orthogonalLoop=1;jettySize=auto;html=1;exitX=0;exitY=0.5;exitDx=0;exitDy=0;exitPerimeter=0;entryX=0.5;entryY=0;entryDx=0;entryDy=0;entryPerimeter=0;startArrow=openThin;startFill=0;" edge="1" parent="ZCTAkGND3LWrQvHKGTcM-22" source="ZCTAkGND3LWrQvHKGTcM-26" target="ZCTAkGND3LWrQvHKGTcM-24">
          <mxGeometry relative="1" as="geometry" />
        </mxCell>
        <mxCell id="ZCTAkGND3LWrQvHKGTcM-28" style="edgeStyle=orthogonalEdgeStyle;rounded=0;orthogonalLoop=1;jettySize=auto;html=1;exitX=1;exitY=0.5;exitDx=0;exitDy=0;exitPerimeter=0;entryX=0.5;entryY=0;entryDx=0;entryDy=0;entryPerimeter=0;startArrow=classic;startFill=1;" edge="1" parent="ZCTAkGND3LWrQvHKGTcM-22" source="ZCTAkGND3LWrQvHKGTcM-26" target="ZCTAkGND3LWrQvHKGTcM-25">
          <mxGeometry relative="1" as="geometry" />
        </mxCell>
        <mxCell id="ZCTAkGND3LWrQvHKGTcM-29" value="redis" style="shape=cylinder3;whiteSpace=wrap;html=1;boundedLbl=1;backgroundOutline=1;size=15;" vertex="1" parent="ZCTAkGND3LWrQvHKGTcM-1">
          <mxGeometry x="500" y="580" width="60" height="80" as="geometry" />
        </mxCell>
        <mxCell id="ZCTAkGND3LWrQvHKGTcM-30" style="edgeStyle=orthogonalEdgeStyle;rounded=0;orthogonalLoop=1;jettySize=auto;html=1;exitX=0.5;exitY=1;exitDx=0;exitDy=0;entryX=0.5;entryY=0;entryDx=0;entryDy=0;entryPerimeter=0;" edge="1" parent="ZCTAkGND3LWrQvHKGTcM-1" source="ZCTAkGND3LWrQvHKGTcM-35" target="ZCTAkGND3LWrQvHKGTcM-29">
          <mxGeometry relative="1" as="geometry" />
        </mxCell>
        <mxCell id="ZCTAkGND3LWrQvHKGTcM-31" style="edgeStyle=orthogonalEdgeStyle;rounded=0;orthogonalLoop=1;jettySize=auto;html=1;exitX=0.5;exitY=0;exitDx=0;exitDy=0;entryX=0;entryY=0.5;entryDx=0;entryDy=0;" edge="1" parent="ZCTAkGND3LWrQvHKGTcM-1" source="ZCTAkGND3LWrQvHKGTcM-32" target="ZCTAkGND3LWrQvHKGTcM-33">
          <mxGeometry relative="1" as="geometry" />
        </mxCell>
        <mxCell id="ZCTAkGND3LWrQvHKGTcM-32" value="api&lt;div&gt;gateway&lt;/div&gt;" style="rounded=1;whiteSpace=wrap;html=1;" vertex="1" parent="ZCTAkGND3LWrQvHKGTcM-1">
          <mxGeometry x="240" y="440" width="120" height="60" as="geometry" />
        </mxCell>
        <mxCell id="ZCTAkGND3LWrQvHKGTcM-33" value="consul" style="rounded=1;whiteSpace=wrap;html=1;" vertex="1" parent="ZCTAkGND3LWrQvHKGTcM-1">
          <mxGeometry x="350" y="290" width="120" height="60" as="geometry" />
        </mxCell>
        <mxCell id="ZCTAkGND3LWrQvHKGTcM-34" value="" style="group" vertex="1" connectable="0" parent="ZCTAkGND3LWrQvHKGTcM-1">
          <mxGeometry x="470" y="440" width="130" height="70" as="geometry" />
        </mxCell>
        <mxCell id="ZCTAkGND3LWrQvHKGTcM-35" value="pymongo-api" style="rounded=1;whiteSpace=wrap;html=1;" vertex="1" parent="ZCTAkGND3LWrQvHKGTcM-34">
          <mxGeometry width="120" height="60" as="geometry" />
        </mxCell>
        <mxCell id="ZCTAkGND3LWrQvHKGTcM-36" value="pymongo-api" style="rounded=1;whiteSpace=wrap;html=1;" vertex="1" parent="ZCTAkGND3LWrQvHKGTcM-34">
          <mxGeometry x="10" y="10" width="120" height="60" as="geometry" />
        </mxCell>
        <mxCell id="ZCTAkGND3LWrQvHKGTcM-37" style="edgeStyle=orthogonalEdgeStyle;rounded=0;orthogonalLoop=1;jettySize=auto;html=1;exitX=0.5;exitY=0;exitDx=0;exitDy=0;entryX=1;entryY=0.5;entryDx=0;entryDy=0;" edge="1" parent="ZCTAkGND3LWrQvHKGTcM-1" source="ZCTAkGND3LWrQvHKGTcM-35" target="ZCTAkGND3LWrQvHKGTcM-33">
          <mxGeometry relative="1" as="geometry" />
        </mxCell>
        <mxCell id="ZCTAkGND3LWrQvHKGTcM-38" style="edgeStyle=orthogonalEdgeStyle;rounded=0;orthogonalLoop=1;jettySize=auto;html=1;exitX=1;exitY=0.5;exitDx=0;exitDy=0;entryX=0;entryY=0.5;entryDx=0;entryDy=0;" edge="1" parent="ZCTAkGND3LWrQvHKGTcM-1" source="ZCTAkGND3LWrQvHKGTcM-32" target="ZCTAkGND3LWrQvHKGTcM-35">
          <mxGeometry relative="1" as="geometry">
            <mxPoint x="430" y="520" as="targetPoint" />
          </mxGeometry>
        </mxCell>
        <mxCell id="B-a8_j5o7IEMuymEGufL-0" value="CDN" style="ellipse;shape=cloud;whiteSpace=wrap;html=1;" vertex="1" parent="ZCTAkGND3LWrQvHKGTcM-1">
          <mxGeometry x="350" y="60" width="120" height="80" as="geometry" />
        </mxCell>
        <mxCell id="B-a8_j5o7IEMuymEGufL-1" value="" style="group" vertex="1" connectable="0" parent="ZCTAkGND3LWrQvHKGTcM-1">
          <mxGeometry x="480" y="450" width="130" height="70" as="geometry" />
        </mxCell>
        <mxCell id="B-a8_j5o7IEMuymEGufL-2" value="pymongo-api" style="rounded=1;whiteSpace=wrap;html=1;" vertex="1" parent="B-a8_j5o7IEMuymEGufL-1">
          <mxGeometry width="120" height="60" as="geometry" />
        </mxCell>
        <mxCell id="B-a8_j5o7IEMuymEGufL-3" value="pymongo-api" style="rounded=1;whiteSpace=wrap;html=1;" vertex="1" parent="B-a8_j5o7IEMuymEGufL-1">
          <mxGeometry x="10" y="10" width="120" height="60" as="geometry" />
        </mxCell>
        <mxCell id="B-a8_j5o7IEMuymEGufL-5" style="edgeStyle=orthogonalEdgeStyle;rounded=0;orthogonalLoop=1;jettySize=auto;html=1;exitX=1;exitY=0.5;exitDx=0;exitDy=0;entryX=0;entryY=0.5;entryDx=0;entryDy=0;" edge="1" parent="ZCTAkGND3LWrQvHKGTcM-1" source="B-a8_j5o7IEMuymEGufL-4" target="ZCTAkGND3LWrQvHKGTcM-32">
          <mxGeometry relative="1" as="geometry" />
        </mxCell>
        <mxCell id="B-a8_j5o7IEMuymEGufL-4" value="frontend" style="rounded=1;whiteSpace=wrap;html=1;" vertex="1" parent="ZCTAkGND3LWrQvHKGTcM-1">
          <mxGeometry x="40" y="440" width="120" height="60" as="geometry" />
        </mxCell>
        <mxCell id="B-a8_j5o7IEMuymEGufL-6" style="edgeStyle=orthogonalEdgeStyle;rounded=0;orthogonalLoop=1;jettySize=auto;html=1;exitX=0.5;exitY=0;exitDx=0;exitDy=0;entryX=0.07;entryY=0.4;entryDx=0;entryDy=0;entryPerimeter=0;" edge="1" parent="ZCTAkGND3LWrQvHKGTcM-1" source="B-a8_j5o7IEMuymEGufL-4" target="B-a8_j5o7IEMuymEGufL-0">
          <mxGeometry relative="1" as="geometry">
            <Array as="points">
              <mxPoint x="100" y="92" />
            </Array>
          </mxGeometry>
        </mxCell>
      </root>
    </mxGraphModel>
  </diagram>
</mxfile>
